<svg width="14" height="20" viewBox="0 0 14 20" fill="none" xmlns="http://www.w3.org/2000/svg">
<path d="M1.99902 19.3232C2.47363 19.3232 2.78125 19.0771 3.52832 18.3477L6.9209 14.9902C6.95605 14.9463 7.03516 14.9463 7.07031 14.9902L10.4717 18.3477C11.2188 19.0771 11.5176 19.3232 12.001 19.3232C12.7041 19.3232 13.1436 18.8398 13.1436 18.0488V2.70312C13.1436 0.954102 12.2295 0.03125 10.498 0.03125H3.49316C1.76172 0.03125 0.847656 0.954102 0.847656 2.70312V18.0488C0.847656 18.8398 1.28711 19.3232 1.99902 19.3232ZM2.83398 16.4316C2.71973 16.5459 2.5791 16.5107 2.5791 16.3438V2.81738C2.5791 2.11426 2.93066 1.77148 3.63379 1.77148H10.3574C11.0605 1.77148 11.4121 2.11426 11.4121 2.81738V16.3438C11.4121 16.5107 11.2803 16.5459 11.1572 16.4316L7.58008 12.9688C7.21094 12.5996 6.78906 12.5996 6.41113 12.9688L2.83398 16.4316Z" fill="black"/>
</svg>
