<svg width="28" height="28" viewBox="0 0 28 28" fill="none" xmlns="http://www.w3.org/2000/svg">
<path d="M6.50195 16.0615L13.1904 9.22363C13.4189 8.97754 13.6914 8.86328 13.999 8.86328C14.3066 8.86328 14.5879 8.98633 14.8164 9.22363L21.4961 16.0615C21.6895 16.2549 21.7949 16.501 21.7949 16.791C21.7949 17.3799 21.3379 17.8369 20.7578 17.8369C20.4766 17.8369 20.2041 17.7314 20.002 17.5205L14.0078 11.3594L7.99609 17.5205C7.80273 17.7227 7.53027 17.8369 7.24023 17.8369C6.66016 17.8369 6.20312 17.3799 6.20312 16.791C6.20312 16.5098 6.30859 16.2549 6.50195 16.0615Z" fill="#4D4DE8"/>
</svg>
