<svg width="28" height="28" viewBox="0 0 28 28" fill="none" xmlns="http://www.w3.org/2000/svg">
<path d="M19.6514 13.6553C19.6426 13.3477 19.5283 13.084 19.291 12.8467L12.4531 6.1582C12.251 5.96484 12.0137 5.85938 11.7236 5.85938C11.1348 5.85938 10.6777 6.31641 10.6777 6.90527C10.6777 7.18652 10.792 7.4502 10.9941 7.65234L17.1465 13.6553L10.9941 19.6582C10.792 19.8604 10.6777 20.1152 10.6777 20.4053C10.6777 20.9941 11.1348 21.4512 11.7236 21.4512C12.0049 21.4512 12.251 21.3457 12.4531 21.1523L19.291 14.4551C19.5371 14.2266 19.6514 13.9629 19.6514 13.6553Z" fill="#4D4DE8"/>
</svg>
