<svg width="28" height="28" viewBox="0 0 28 28" fill="none" xmlns="http://www.w3.org/2000/svg">
<path d="M8.34766 13.6553C8.34766 13.9629 8.46191 14.2266 8.70801 14.4551L15.5459 21.1523C15.7393 21.3457 15.9854 21.4512 16.2754 21.4512C16.8555 21.4512 17.3213 20.9941 17.3213 20.4053C17.3213 20.1152 17.1982 19.8604 17.0049 19.6582L10.8438 13.6553L17.0049 7.65234C17.1982 7.4502 17.3213 7.18652 17.3213 6.90527C17.3213 6.31641 16.8555 5.85938 16.2754 5.85938C15.9854 5.85938 15.7393 5.96484 15.5459 6.1582L8.70801 12.8467C8.46191 13.084 8.34766 13.3477 8.34766 13.6553Z" fill="#4D4DE8"/>
</svg>
