<svg width="28" height="28" viewBox="0 0 28 28" fill="none" xmlns="http://www.w3.org/2000/svg">
<path d="M13.999 18.4902C14.3066 18.4814 14.5879 18.3672 14.8164 18.1211L21.4961 11.2832C21.6895 11.0898 21.7949 10.8438 21.7949 10.5537C21.7949 9.97363 21.3379 9.50781 20.7578 9.50781C20.4766 9.50781 20.2041 9.62207 20.002 9.82422L14.0078 15.9854L7.99609 9.82422C7.79395 9.63086 7.53027 9.50781 7.24023 9.50781C6.66016 9.50781 6.20312 9.97363 6.20312 10.5537C6.20312 10.8438 6.30859 11.0898 6.50195 11.2832L13.1904 18.1211C13.4277 18.3672 13.6914 18.4902 13.999 18.4902Z" fill="#4D4DE8"/>
</svg>
