<svg width="28" height="28" viewBox="0 0 28 28" fill="none" xmlns="http://www.w3.org/2000/svg">
<path d="M12.1094 21.0923C12.4663 21.0923 12.7485 20.9346 12.9478 20.6274L20.792 8.27588C20.9414 8.03516 20.9995 7.85254 20.9995 7.66162C20.9995 7.20508 20.7007 6.90625 20.2441 6.90625C19.9121 6.90625 19.7295 7.01416 19.5303 7.32959L12.0762 19.208L8.20801 14.1445C8.00049 13.854 7.79297 13.7378 7.49414 13.7378C7.021 13.7378 6.69727 14.0615 6.69727 14.5181C6.69727 14.709 6.78027 14.9248 6.93799 15.124L11.2461 20.6108C11.4951 20.9346 11.7524 21.0923 12.1094 21.0923Z" fill="white"/>
</svg>
