<svg width="28" height="28" viewBox="0 0 28 28" fill="none" xmlns="http://www.w3.org/2000/svg">
<path d="M5.24609 13.6475C5.24609 13.3926 5.34277 13.1465 5.54492 12.9531L10.1855 8.3916C10.3701 8.20703 10.6338 8.10156 10.8623 8.10156C11.416 8.10156 11.7764 8.48828 11.7764 9.01562C11.7764 9.28809 11.6797 9.49023 11.5039 9.65723L9.59668 11.5117L8.09375 12.8037L10.0713 12.7158H17.9199L19.8975 12.8037L18.3857 11.5117L16.4785 9.65723C16.3115 9.49023 16.2061 9.28809 16.2061 9.01562C16.2061 8.48828 16.5752 8.10156 17.1289 8.10156C17.3574 8.10156 17.6211 8.20703 17.7969 8.3916L22.4463 12.9531C22.6396 13.1465 22.7451 13.3926 22.7451 13.6475C22.7451 13.9023 22.6396 14.1572 22.4463 14.3418L17.7969 18.9121C17.6211 19.0967 17.3574 19.2021 17.1289 19.2021C16.5752 19.2021 16.2061 18.8154 16.2061 18.2881C16.2061 18.0156 16.3115 17.8135 16.4785 17.6465L18.3857 15.792L19.8975 14.5L17.9199 14.5791H10.0713L8.09375 14.5L9.59668 15.792L11.5039 17.6465C11.6797 17.8135 11.7764 18.0156 11.7764 18.2881C11.7764 18.8154 11.416 19.2021 10.8623 19.2021C10.6338 19.2021 10.3701 19.0967 10.1855 18.9121L5.54492 14.3418C5.34277 14.1572 5.24609 13.9023 5.24609 13.6475Z" fill="#4D4DE8"/>
</svg>
