<svg width="28" height="28" viewBox="0 0 28 28" fill="none" xmlns="http://www.w3.org/2000/svg">
<path d="M14.001 23.0801C9.03516 23.0801 4.92188 18.9756 4.92188 14.001C4.92188 9.03516 9.02637 4.92188 13.9922 4.92188C18.9668 4.92188 23.0801 9.03516 23.0801 14.001C23.0801 18.9756 18.9668 23.0801 14.001 23.0801ZM14.001 21.2959C18.0439 21.2959 21.2959 18.0439 21.2959 14.001C21.2959 9.95801 18.0352 6.71484 13.9922 6.71484C9.94922 6.71484 6.71484 9.95801 6.71484 14.001C6.71484 18.0439 9.95801 21.2959 14.001 21.2959ZM13.9922 15.4688C13.5 15.4688 13.2275 15.1875 13.21 14.6953L13.0869 10.415C13.0693 9.90527 13.4385 9.53613 13.9834 9.53613C14.5195 9.53613 14.9062 9.90527 14.8887 10.4238L14.7568 14.6953C14.7393 15.1963 14.4668 15.4688 13.9922 15.4688ZM13.9922 18.3779C13.4297 18.3779 12.9639 17.9648 12.9639 17.4111C12.9639 16.8662 13.4209 16.4531 13.9922 16.4531C14.5635 16.4531 15.0205 16.8574 15.0205 17.4111C15.0205 17.9736 14.5547 18.3779 13.9922 18.3779Z" fill="#059613"/>
</svg>
