<svg width="18" height="18" viewBox="0 0 18 18" fill="none" xmlns="http://www.w3.org/2000/svg">
<g clip-path="url(#clip0_7711_43125)">
<path d="M9.00098 18.0801C4.03516 18.0801 -0.078125 13.9756 -0.078125 9.00098C-0.078125 4.03516 4.02637 -0.078125 8.99219 -0.078125C13.9668 -0.078125 18.0801 4.03516 18.0801 9.00098C18.0801 13.9756 13.9668 18.0801 9.00098 18.0801ZM9.00098 16.2959C13.0439 16.2959 16.2959 13.0439 16.2959 9.00098C16.2959 4.95801 13.0352 1.71484 8.99219 1.71484C4.94922 1.71484 1.71484 4.95801 1.71484 9.00098C1.71484 13.0439 4.95801 16.2959 9.00098 16.2959ZM8.99219 10.4688C8.5 10.4688 8.22754 10.1875 8.20996 9.69531L8.08691 5.41504C8.06934 4.90527 8.43848 4.53613 8.9834 4.53613C9.51953 4.53613 9.90625 4.90527 9.88867 5.42383L9.75684 9.69531C9.73926 10.1963 9.4668 10.4688 8.99219 10.4688ZM8.99219 13.3779C8.42969 13.3779 7.96387 12.9648 7.96387 12.4111C7.96387 11.8662 8.4209 11.4531 8.99219 11.4531C9.56348 11.4531 10.0205 11.8574 10.0205 12.4111C10.0205 12.9736 9.55469 13.3779 8.99219 13.3779Z" fill="#E29520"/>
</g>
<defs>
<clipPath id="clip0_7711_43125">
<rect width="18" height="18" fill="white"/>
</clipPath>
</defs>
</svg>
